<svg xmlns="http://www.w3.org/2000/svg" width="17.281" height="22.148" viewBox="0 0 17.281 22.148"><g transform="translate(-125.096 -1093)"><g transform="translate(128.654 1093)" fill="none" stroke="#7a8b9b" stroke-width="2"><circle cx="5.077" cy="5.077" r="5.077" stroke="none"/><circle cx="5.077" cy="5.077" r="4.077" fill="none"/></g><g transform="matrix(1, -0.017, 0.017, 1, 125.096, 1104.776)" fill="none"><path d="M8.551,0C13.274,0,17.1,2.951,17.1,6.591s-3.829,3.783-8.551,3.783S0,10.232,0,6.591,3.829,0,8.551,0Z" stroke="none"/><path d="M 8.551380157470703 2.000003814697266 C 6.706589698791504 2.000003814697266 4.992770195007324 2.537903785705566 3.725620269775391 3.514623641967773 C 2.612839698791504 4.372363567352295 2 5.465053558349609 2 6.591413497924805 C 2 7.29542350769043 2.154109954833984 7.638583660125732 3.109049797058105 7.941323280334473 C 4.369350433349609 8.340873718261719 6.40254020690918 8.373963356018066 8.551380157470703 8.373963356018066 C 10.70022010803223 8.373963356018066 12.73340034484863 8.340873718261719 13.99370956420898 7.941323280334473 C 14.94865036010742 7.638583660125732 15.10276031494141 7.29542350769043 15.10276031494141 6.591413497924805 C 15.10276031494141 5.465053558349609 14.48991966247559 4.372363567352295 13.37713050842285 3.514623641967773 C 12.1099796295166 2.537903785705566 10.39616012573242 2.000003814697266 8.551380157470703 2.000003814697266 M 8.551380157470703 3.814697265625e-06 C 13.274169921875 3.814697265625e-06 17.10276031494141 2.95107364654541 17.10276031494141 6.591413497924805 C 17.10276031494141 10.23174381256104 13.274169921875 10.37396335601807 8.551380157470703 10.37396335601807 C 3.828579902648926 10.37396335601807 0 10.23174381256104 0 6.591413497924805 C 0 2.95107364654541 3.828579902648926 3.814697265625e-06 8.551380157470703 3.814697265625e-06 Z" stroke="none" fill="#7a8b9b"/></g></g></svg>