<svg xmlns="http://www.w3.org/2000/svg" width="119" height="40" viewBox="0 0 119 40"><path d="M20,0h99a0,0,0,0,1,0,0V20A20,20,0,0,1,99,40H20A20,20,0,0,1,0,20v0A20,20,0,0,1,20,0Z" fill="#4fc3f7"/><g transform="translate(14 6)"><path d="M384.23.693A3.945,3.945,0,0,1,386.478.7a2.5,2.5,0,0,1,.757,3.882,2.561,2.561,0,0,1-3.877-.1A2.475,2.475,0,0,1,384.23.693Z" transform="translate(-299.442 -0.535)" fill="#fff"/><path d="M70.622,11.164a2.5,2.5,0,0,1,3.169,2.292,2.436,2.436,0,0,1-2.6,2.593,2.48,2.48,0,0,1-.569-4.885Z" transform="translate(-53.872 -8.775)" fill="#fff"/><path d="M148.811,13.178a2.283,2.283,0,1,1-.92,3.753A2.3,2.3,0,0,1,148.811,13.178Z" transform="translate(-115.264 -10.325)" fill="#fff"/><path d="M172.616,13.251a2.338,2.338,0,0,1,2.161.475,2.3,2.3,0,0,1,.137,3.315,2.288,2.288,0,1,1-2.3-3.79Z" transform="translate(-133.836 -10.417)" fill="#fff"/><path d="M274.429,27.329c1.162-1.178,2.292-2.392,3.5-3.529a4.51,4.51,0,0,1,.582.515c2.521,2.717,5.064,5.413,7.58,8.132a5.683,5.683,0,0,0,1.431,1.254,18.3,18.3,0,0,0,2.589.07c2.017-.037,4.124.207,6.034-.593a31.844,31.844,0,0,0,3.705-1.943,10.768,10.768,0,0,0-3.2-.238q-2.2,0-4.41,0c-.209-1.681-.456-3.358-.639-5.042,2.482-.017,4.961-.007,7.443-.009a6.034,6.034,0,0,1,4.427,1.544,7.569,7.569,0,0,1,1.9,4.545v1.529a58.213,58.213,0,0,1-9.009,4.656c-2.07.787-4.314.508-6.475.556a18.375,18.375,0,0,1-3.666-.166,13,13,0,0,1-1.963-.868,6.013,6.013,0,0,1-3.1,1.027c-3.009.024-6.019-.009-9.028.013-.273-1.662-.451-3.337-.685-5,2.759-.048,5.524.063,8.28-.052.342-.473-.157-.9-.447-1.239C277.641,30.792,276.069,29.027,274.429,27.329Z" transform="translate(-212.372 -18.726)" fill="#fff"/><path d="M48.768,31.081a5.722,5.722,0,0,1,6.536,1.69,7.5,7.5,0,0,1,1.483,7.236,5.905,5.905,0,0,1-2.628,3.232,7.211,7.211,0,0,1-7.262-.2,5,5,0,0,1-3.509,1.084c-1.09-.009-2.183.026-3.273-.015a12.666,12.666,0,0,1-1.5-.41c-1.308.613-2.765.39-4.161.425-1.308-.007-2.619.015-3.928-.007a3.585,3.585,0,0,1-1.542-.467,4.712,4.712,0,0,1-1.943.473c-2.037,0-4.072,0-6.106,0a5.816,5.816,0,0,1-1.736-.434,5.362,5.362,0,0,1-1.758.434q-2.689.01-5.382,0a8.414,8.414,0,0,1-4.423,6.021c-1.971,1.016-4.255.757-6.39.726-.246-1.64-.5-3.28-.659-4.931,1.786-.1,3.642.238,5.371-.336A3.391,3.391,0,0,0,7.65,44.148c-2.109-.181-4.468-.589-5.882-2.331A6.16,6.16,0,0,1,.6,37.056,7.115,7.115,0,0,1,2.71,32.348a5.987,5.987,0,0,1,5.755-1.173,4.833,4.833,0,0,1,2.822,2.619A11.438,11.438,0,0,1,12.04,39.1c1.363.026,2.728.052,4.089,0,.482-.048.582-.6.6-.986.039-1.428-.009-2.857.022-4.285q2.506.013,5.011,0l-.007,3.886a1.756,1.756,0,0,0,.423,1.343,25.322,25.322,0,0,0,2.907.072c.491,0,1.213.076,1.313-.576.146-1.564.035-3.147.057-4.719,1.677-.009,3.352.011,5.027-.013.063,1.5-.031,3,.048,4.492,0,.414.325.875.781.8,1.062.007,2.128.033,3.191-.013.5.017.663-.565.661-.966.044-1.435-.037-2.874.046-4.309,1.66,0,3.319.007,4.979,0a38.832,38.832,0,0,0,.109,4.673c.083.724.907.635,1.444.632.569-.048,1.322.164,1.692-.408.491-.643.284-1.494.423-2.237a7.308,7.308,0,0,1,3.917-5.4m1.673,4.082c-1.265.279-1.531,1.865-1.132,2.911a1.862,1.862,0,0,0,2.791.693,2.378,2.378,0,0,0,.011-3.247,1.779,1.779,0,0,0-1.67-.358m-45.105.471a2.562,2.562,0,0,0,.028,2.8,2.719,2.719,0,0,0,2.3.691,14.132,14.132,0,0,0-.124-2.883A1.342,1.342,0,0,0,5.336,35.634Z" transform="translate(-0.549 -24.077)" fill="#fff"/><path d="M104.11,104.868a2.315,2.315,0,0,1,3.105,2.085,2.282,2.282,0,0,1-4.564,0A2.317,2.317,0,0,1,104.11,104.868Z" transform="translate(-80.383 -81.99)" fill="#fff"/><path d="M127.867,104.862a2.288,2.288,0,0,1,3,1.666,2.2,2.2,0,0,1-2.194,2.7,2.177,2.177,0,0,1-2.314-2.05A2.281,2.281,0,0,1,127.867,104.862Z" transform="translate(-98.914 -81.998)" fill="#fff"/></g></svg>